<!DOCTYPE svg PUBLIC "-//W3C//DTD SVG 1.1//EN" "http://www.w3.org/Graphics/SVG/1.1/DTD/svg11.dtd">
<!-- Uploaded to: SVG Repo, www.svgrepo.com, Transformed by: SVG Repo Mixer Tools -->
<svg fill="#ffffff" height="800px" width="800px" version="1.1" id="Layer_1" xmlns="http://www.w3.org/2000/svg" xmlns:xlink="http://www.w3.org/1999/xlink" viewBox="0 0 480 480" xml:space="preserve" stroke="#ffffff" stroke-width="0.0048000000000000004">
<g id="SVGRepo_bgCarrier" stroke-width="0"/>
<g id="SVGRepo_tracerCarrier" stroke-linecap="round" stroke-linejoin="round"/>
<g id="SVGRepo_iconCarrier"> <g> <g> <g> <path d="M67.203,172.003v244.885c0,5.523,4.478,10,10,10h331.539c5.522,0,10-4.477,10-10V172.003c0-5.523-4.478-10-10-10H77.203 C71.681,162.003,67.203,166.48,67.203,172.003z M96.359,406.888l80.2-80.201l46.711,52.579c1.829,2.059,4.427,3.273,7.181,3.354 c2.733,0.079,5.419-0.977,7.366-2.924l64.697-64.697l84.52,91.889H96.359z M87.204,182.003h311.538v208.071l-88.565-96.289 c-1.845-2.005-4.428-3.171-7.151-3.229c-0.07-0.001-0.14-0.002-0.209-0.002c-2.649,0-5.193,1.052-7.071,2.929l-64.568,64.568 l-46.711-52.579c-1.829-2.059-4.427-3.273-7.181-3.354c-2.782-0.091-5.419,0.977-7.366,2.924l-82.716,82.716V182.003z"/> <path d="M463.172,107.633H302.414l-53.77-66.284c6.329-3.958,10.55-10.976,10.55-18.965C259.194,10.042,249.14,0,236.781,0 c-12.343,0-22.384,10.042-22.384,22.384c0,6.984,3.222,13.229,8.256,17.334l-44.487,67.915H16.828c-5.522,0-10,4.477-10,10V470 c0,5.523,4.478,10,10,10h446.344c5.522,0,10-4.477,10-10V117.633C473.172,112.11,468.694,107.633,463.172,107.633z M235.396,56.763l41.266,50.87h-74.587L235.396,56.763z M453.172,460H26.828V127.633h156.719c0.004,0,0.009,0.001,0.014,0.001 c0.006,0,0.011-0.001,0.016-0.001h113.988c0.006,0,0.012,0,0.017,0h155.59V460z"/> <path d="M225.221,313.085c22.308,0,40.457-18.162,40.457-40.486c0-22.292-18.149-40.428-40.457-40.428 c-22.308,0-40.457,18.136-40.457,40.428C184.764,294.923,202.913,313.085,225.221,313.085z M225.221,252.171 c11.28,0,20.457,9.164,20.457,20.428c0,11.296-9.177,20.486-20.457,20.486c-11.28,0-20.457-9.19-20.457-20.486 C204.764,261.335,213.94,252.171,225.221,252.171z"/> </g> </g> </g> </g>
</svg>